<svg width="26" height="24" viewBox="0 0 26 24" fill="none" xmlns="http://www.w3.org/2000/svg">
<path fill-rule="evenodd" clip-rule="evenodd" d="M6.83133 23.5428V18.2559H2.26736C1.78318 18.2559 1.31884 18.0635 0.976475 17.7212C0.634111 17.3788 0.441772 16.9145 0.441772 16.4303V1.82559C0.441772 1.34141 0.634111 0.877067 0.976475 0.534703C1.31884 0.192339 1.78318 0 2.26736 0H24.1744C24.6586 0 25.1229 0.192339 25.4653 0.534703C25.8077 0.877067 26 1.34141 26 1.82559V16.4303C26 16.9145 25.8077 17.3788 25.4653 17.7212C25.1229 18.0635 24.6586 18.2559 24.1744 18.2559H13.2209L7.61086 23.8659C7.54703 23.9299 7.46563 23.9735 7.37699 23.9912C7.28835 24.0089 7.19646 23.9998 7.11296 23.9652C7.02947 23.9306 6.95813 23.872 6.90799 23.7968C6.85785 23.7216 6.83117 23.6332 6.83133 23.5428ZM5.91854 11.8663C5.91854 11.6242 6.01471 11.3921 6.18589 11.2209C6.35707 11.0497 6.58924 10.9535 6.83133 10.9535H19.6105C19.8525 10.9535 20.0847 11.0497 20.2559 11.2209C20.4271 11.3921 20.5232 11.6242 20.5232 11.8663C20.5232 12.1084 20.4271 12.3406 20.2559 12.5118C20.0847 12.683 19.8525 12.7791 19.6105 12.7791H6.83133C6.58924 12.7791 6.35707 12.683 6.18589 12.5118C6.01471 12.3406 5.91854 12.1084 5.91854 11.8663ZM6.83133 5.47676C6.58924 5.47676 6.35707 5.57293 6.18589 5.74412C6.01471 5.9153 5.91854 6.14747 5.91854 6.38956C5.91854 6.63165 6.01471 6.86382 6.18589 7.035C6.35707 7.20618 6.58924 7.30235 6.83133 7.30235H19.6105C19.8525 7.30235 20.0847 7.20618 20.2559 7.035C20.4271 6.86382 20.5232 6.63165 20.5232 6.38956C20.5232 6.14747 20.4271 5.9153 20.2559 5.74412C20.0847 5.57293 19.8525 5.47676 19.6105 5.47676H6.83133Z" fill="#007377"/>
</svg>
